# xmcd CD database file generated by OrangeCD 4.3
#
# Track frame offsets:
#	150
#	9569
#	20222
#	31897
#	39690
#	48733
#	58212
#	68979
#	83463
#	94206
#	103986
#	113652
#	126089
#	135950
#	145386
#	156861
#	168368
#	182607
#	193081
#	204913
#	214107
#	223306
#	232098
#	240353
#
# Disc length: 3360 seconds
#
# Revision: 0
# Processed by: cddbd v1.4PL0 Copyright (c) Steve Scherf et al.
# Submitted via: OrangeCD 4.3
#
DISCID=5f0d1e18
DTITLE=Various Artist - When The Blues Goes Boppin and Jivin' Vol. 3
DYEAR=1900
DGENRE=Blues
TTITLE0=Bobby Lewis - Lonely Teardrops
TTITLE1=Big Walter - Pack, Fair and Square
TTITLE2=Fay Simmons - Hangin' Around
TTITLE3=Sammy Price - Boogie Woogie Stomp
TTITLE4=Joe Turner - Early One Morning
TTITLE5=Roy Milton - You Got Me Reeling and Rocking
TTITLE6=Lloyd Price - Ain't That Just Like A Woman
TTITLE7=Piano Blues Band - Honky Tonk Train Blues
TTITLE8=Calvin Boze - Safronia B
TTITLE9=Chuck Berry - Brenda Lee
TTITLE10=Dr. Horse - Crazy Beat
TTITLE11=Mickey Baaker and Piano Band - Pack Up and Boogie
TTITLE12=Robert Luke Harsshaman - Is You Is Or Is You Ain't My Baby
TTITLE13=Tony Harris - I'll Forever Love You
TTITLE14=J.J. Jackson - Oh My Liddy
TTITLE15=Lloyd Price Blues Band - Ooh Pee Day
TTITLE16=Bobby Lewis - Boom A Chick Chick
TTITLE17=Johnny Darrow - Don't Start Me Talking
TTITLE18=Hamp Jones - Pack Your Clothes
TTITLE19=Sammy Price - The Slop
TTITLE20=Little Esther Phillips - Don't Feel Rained On
TTITLE21=Bobby Lewis - A Man's Got To Be A Man
TTITLE22=Darla Hood - Sweet Mystery of Life
TTITLE23=Sammy Price - Rock My Soul
EXTD=
EXTT0=
EXTT1=
EXTT2=
EXTT3=
EXTT4=
EXTT5=
EXTT6=
EXTT7=
EXTT8=
EXTT9=
EXTT10=
EXTT11=
EXTT12=
EXTT13=
EXTT14=
EXTT15=
EXTT16=
EXTT17=
EXTT18=
EXTT19=
EXTT20=
EXTT21=
EXTT22=
EXTT23=
PLAYORDER=
